<svg id="Layer_1" data-name="Layer 1" xmlns="http://www.w3.org/2000/svg" viewBox="0 0 891.997 510.969">
  <g>
    <rect x="669.633" y="13.346" width="14.485" height="49.16" transform="translate(71.721 343.519) rotate(-30)" fill="#dee8f5"></rect>
    <rect x="646.993" y="13.346" width="14.485" height="49.16" fill="#dee8f5"></rect>
    <rect x="731.358" width="14.485" height="62.505" fill="#dee8f5"></rect>
    <rect x="716.46" y="13.346" width="14.485" height="49.16" fill="#c1d8ed"></rect>
    <rect x="745.844" y="7.028" width="14.485" height="55.477" fill="#c1d8ed"></rect>
    <rect x="693.099" y="5.297" width="23.134" height="57.208" fill="#dee8f5"></rect>
    <g>
      <g>
        <path d="M783.54,46.171s-.07-24.452,12.211-29.559-6.106,29.559-6.106,29.559Z" fill="#8ddbe0"></path>
        <path d="M789.645,46.171S796.058.4,782.954.4s.586,45.774.586,45.774" fill="#8ddbe0"></path>
        <path d="M785.717,48.187s-6.15-40.8-17.12-37.524S781.4,49.474,781.4,49.474Z" fill="#8ddbe0"></path>
      </g>
      <rect x="769.204" y="33.901" width="28.604" height="28.604" fill="#dee8f5"></rect>
    </g>
    <rect x="639.751" y="62.505" width="169.711" height="6.356" fill="#c1d8ed"></rect>
    <rect x="639.751" y="62.505" width="132.022" height="6.356" fill="#dee8f5"></rect>
  </g>
  <path d="M892,510.969H0c9.774-24.925,27.824-46.069,53.268-52.342,37.222-9.164,76.612,16.035,113.75,6.559,21.1-5.377,37.711-21.047,55.166-34.059,65.851-49.1,156.089-63.607,234.019-37.622,40.73,13.576,77.844,37.319,119.568,47.413,53.954,13.058,110.376,2.229,165.86.445C795.665,439.625,873.089,461.646,892,510.969Z" fill="#f3f5fd"></path>
  <g>
    <rect x="23.608" y="429.836" width="160.001" height="6" transform="translate(-341.345 422.928) rotate(-75.263)" fill="#c1d8ed"></rect>
    <rect x="199.348" y="354.522" width="6" height="156.63" transform="translate(-64.601 36.566) rotate(-8.911)" fill="#c1d8ed"></rect>
    <path d="M115.609,207.032s-49.566-3.13-49.566,40.174,7.3,103.826,43.827,110.609,90.481,4.737,103.008,2.614c15.391-2.608,22.1-38.311,1.6-40.7C156.3,312.945,184.478,211.728,115.609,207.032Z" fill="#c1d8ed"></path>
  </g>
  <g>
    <rect x="606.696" y="352.836" width="6" height="160.001" transform="translate(-90.039 169.307) rotate(-14.735)" fill="#c1d8ed"></rect>
    <rect x="432.642" y="429.836" width="156.63" height="6" transform="translate(4.178 870.558) rotate(-81.087)" fill="#c1d8ed"></rect>
    <path d="M597.7,207.032s49.565-3.13,49.565,40.174-7.3,103.826-43.826,110.609-90.482,4.737-103.008,2.614c-15.392-2.608-22.1-38.311-1.6-40.7C557,312.945,528.826,211.728,597.7,207.032Z" fill="#c1d8ed"></path>
  </g>
  <g>
    <path d="M186.838,142.178c.3,3.67,3.732,7.446,3.1,10.9-.652,3.578-5.228,5.893-6.754,9.1-1.547,3.255-.461,8.258-2.781,10.986s-7.431,2.463-10.4,4.515c-2.922,2.022-4.469,6.912-7.894,8.131-3.311,1.179-7.592-1.6-11.261-1.3s-7.446,3.732-10.9,3.1c-3.578-.652-5.893-5.229-9.1-6.754-3.255-1.547-8.258-.461-10.987-2.781s-2.463-7.431-4.514-10.4c-2.022-2.922-6.912-4.469-8.132-7.9-1.179-3.311,1.6-7.591,1.3-11.261s-3.732-7.446-3.1-10.9c.652-3.578,5.228-5.893,6.754-9.1,1.547-3.256.461-8.258,2.781-10.987s7.431-2.463,10.395-4.514c2.922-2.023,4.469-6.912,7.895-8.132,3.311-1.179,7.591,1.6,11.261,1.3s7.446-3.732,10.9-3.1c3.578.652,5.893,5.228,9.1,6.754,3.256,1.547,8.258.461,10.987,2.78s2.463,7.432,4.514,10.4c2.022,2.922,6.912,4.469,8.132,7.894C189.322,134.228,186.54,138.509,186.838,142.178Z" fill="#0f1011"></path>
    <path d="M131.479,185.025s7.736-4.092,6.029-25.151l15.979-2.948s-1.812,18.877,6.265,24.878Z" fill="#EDA59F"></path>
    <g opacity="0.15">
      <path d="M156.482,177.854l-13.264-10.165,10.425-.1A28.741,28.741,0,0,0,156.482,177.854Z"></path>
    </g>
    <path d="M128.45,151.7c1.1,6.39,4.581,12.443,10.214,14.511a40.506,40.506,0,0,0,19.356,2.633c17.491-1.418,14.067-41.19,5.77-48.921s-32.671-2.862-35.646,10.055C126.605,136.66,127.4,145.62,128.45,151.7Z" fill="#EDA59F"></path>
    <g>
      <circle cx="153.474" cy="145.354" r="1.449" fill="#0f1011"></circle>
      <circle cx="164.907" cy="144.427" r="1.449" fill="#0f1011"></circle>
      <path d="M167.421,141.341h-.01l-3.838-.051a.681.681,0,0,1,.009-1.362h.01l3.838.052a.681.681,0,0,1-.009,1.361Z" fill="#0f1011"></path>
      <path d="M150.35,142.726a.681.681,0,0,1-.158-1.344l3.785-.907a.681.681,0,1,1,.317,1.324l-3.785.908A.727.727,0,0,1,150.35,142.726Z" fill="#0f1011"></path>
      <path d="M154.134,156.766s5.349.569,9.1-.738c0,0-.033,3.523-4.266,3.866S154.134,156.766,154.134,156.766Z" fill="#fff"></path>
    </g>
    <path d="M140.233,135.16a125.379,125.379,0,0,1-4.867,44.407s-12.193-21.025-14.078-38.531c-1.768-16.41,10.332-26.087,18.5-27.907,31.052-6.914,33.286,15.768,33.286,15.768-5.656,11.763-36.2,11.712-36.2,11.712" fill="#0f1011"></path>
    <path d="M146.152,151.592a6.143,6.143,0,0,1-12.245.993,6.041,6.041,0,0,1,5.626-6.619C143.911,145.827,145.878,148.211,146.152,151.592Z" fill="#EDA59F"></path>
    <g opacity="0.15">
      <path d="M159.9,153.4a.5.5,0,0,1-.147-.979l2.948-.9-2.057-4.592a.5.5,0,1,1,.912-.409l2.289,5.109a.5.5,0,0,1-.31.682l-3.489,1.069A.5.5,0,0,1,159.9,153.4Z"></path>
    </g>
  </g>
  <g>
    <g>
      <path d="M581.666,185.431s-7.915-4.2-6.148-25.751l-16.353-3.032s1.837,19.324-6.436,25.459Z" fill="#EDA59F"></path>
      <g opacity="0.15">
        <path d="M556.08,178.067l13.586-10.393L559,167.564A29.41,29.41,0,0,1,556.08,178.067Z"></path>
      </g>
      <path d="M584.8,151.323c-1.132,6.539-4.7,12.731-10.469,14.844a41.463,41.463,0,0,1-19.814,2.677c-17.9-1.468-14.362-42.175-5.862-50.082s33.444-2.9,36.479,10.326C586.7,135.927,585.875,145.1,584.8,151.323Z" fill="#EDA59F"></path>
      <path d="M574.559,165.385c.34,1.088.578,1.562,1.557.98,3.845-2.285,11.474-7.256,14.422-25.879,2.641-16.688-7.653-23.57-15.862-26.026-7.076-2.117-23.591-2.552-31.342,2.119-6.679,4.026,0,13.39,0,13.39,2.952.136,3.547,2.673,10.512,2.673,5.383,0,3.5-.2,8.543-.159,8.969.072,6.071,6.669,5.908,8.469-.467,5.149,3.4,7.877,3.98,12.181A83.035,83.035,0,0,0,574.559,165.385Z" fill="#0f1011"></path>
      <path d="M566.9,148.432a6.288,6.288,0,1,0,12.533,1.027,6.183,6.183,0,0,0-5.753-6.78C569.2,142.533,567.187,144.971,566.9,148.432Z" fill="#EDA59F"></path>
      <path d="M569.666,128.486l4.63,1.7s-1.642,23.131-2.938,29.454-4.92,10.441-9.029,10.793c-6.309.54-10.88.584-15.507-1.07-5.219-1.865-4.488-15.871-4.488-15.871s16.792,1.819,21.439-.413S569.666,128.486,569.666,128.486Z" fill="#0f1011"></path>
      <g>
        <circle cx="559.188" cy="144.802" r="1.483" fill="#0f1011"></circle>
        <circle cx="547.487" cy="143.843" r="1.483" fill="#0f1011"></circle>
        <path d="M544.917,140.682a.7.7,0,0,1-.009-1.393l3.929-.05a.73.73,0,0,1,.706.688.7.7,0,0,1-.688.706l-3.929.049Z" fill="#0f1011"></path>
        <path d="M562.389,142.115a.712.712,0,0,1-.164-.019l-3.873-.933a.7.7,0,1,1,.326-1.355l3.874.932a.7.7,0,0,1-.163,1.375Z" fill="#0f1011"></path>
      </g>
      <g opacity="0.15">
        <path d="M552.6,153.029a.5.5,0,0,1-.151-.023l-3.57-1.1a.511.511,0,0,1-.316-.7l2.347-5.228a.512.512,0,0,1,.934.419l-2.11,4.7,3.016.926a.512.512,0,0,1-.15,1Z"></path>
      </g>
      <path d="M558.5,156.483s-5.475.578-9.313-.763c0,0,.031,3.606,4.363,3.961S558.5,156.483,558.5,156.483Z" fill="#fff"></path>
    </g>
    <path d="M583.6,119.046s-4.836,6.1-22.787-6.112-24.68-3.357-24.68,2.05-2.949,17.571,15.639,17.571" fill="#0f1011"></path>
  </g>
  <g>
    <path d="M636.339,207.166s-.558-12,8.048-11.881c5.431.075,31.05-2.636,31.571-.317,1.288,5.737-22.127,8.537-23.942,14.058Z" fill="#EDA59F"></path>
    <path d="M641.376,195.849s11.7-4.592,14.671-4.069c2.632.464-2.528,5.008-2.528,5.008Z" fill="#EDA59F"></path>
  </g>
  <rect x="207.62" y="482.79" width="24.532" height="21" transform="translate(-288.847 674.606) rotate(-85.591)" fill="#EDA59F"></rect>
  <path d="M256.018,510.019a4.107,4.107,0,0,0,4.076-4.427h0a4.108,4.108,0,0,0-2.658-3.529l-24.443-8.187a3.461,3.461,0,0,0-2.872.32,19.112,19.112,0,0,1-11.468,3.4,17.031,17.031,0,0,1-8.82-3.222,1.547,1.547,0,0,0-2.528,1.2v11.952a2.678,2.678,0,0,0,2.689,2.678Z" fill="#c1d8ed"></path>
  <rect x="295.69" y="480.889" width="21" height="24.803" transform="translate(-77.585 57.625) rotate(-9.548)" fill="#EDA59F"></rect>
  <path d="M325.187,484.675,279.079,307.291a18.5,18.5,0,0,0-17.905-13.846H160.131v.065H103.522v17.348a38.087,38.087,0,0,0,38.087,38.087h27.609v.109h48.2L204.146,490.169l36.838,3.465,12.833-136.455,35.56,136.8Z" fill="#55affc"></path>
  <g>
    <path d="M248.2,208.73s.15-12.01,8.735-11.386c5.416.394,31.151-.8,31.534,1.544.948,5.8-22.592,7.218-24.728,12.623Z" fill="#EDA59F"></path>
    <path d="M253.892,197.729s11.949-3.894,14.886-3.2c2.6.618-2.82,4.85-2.82,4.85Z" fill="#EDA59F"></path>
  </g>
  <path d="M211.6,269.481a10.916,10.916,0,0,1-9.518-5.585L165.966,199.25,185,188.616l28.636,51.259,34.138-38.408L266.149,211.8l-46.4,54.022A10.9,10.9,0,0,1,211.6,269.481Z" fill="#2f3235"></path>
  <g>
    <path d="M223.038,255.568c2.98,0,12.943-1.573,13.655.958.426,1.517-7,3.309-7,3.309" fill="#EDA59F"></path>
    <path d="M221.474,267.516s20.114,8.264,31.669-1.162a1.888,1.888,0,0,0-1.081-3.346c-7.792-.458-23.8-2.029-21.925-7.166H217.573" fill="#EDA59F"></path>
  </g>
  <path d="M223.516,249.752H185.191c-.013-1.251-.018-2.529,0-3.868.32-27.73,14.9-65.49-18.27-66.92-.63-.02-1.64-.05-2.94-.07-.26,5.5-34.33,5.48-35.05-.13-9.62.01-17.52,2.97-22.08,7.53-15.75,15.75,3.58,42.59,3.58,63.59s-9.5,30.42-8.8,41.2c1.1,16.94,83.43,12.94,87.62,3.31,2.81-6.452.087-11.3-2.056-22.837h36.324Z" fill="#2f3235"></path>
  <path d="M342.322,510.019a4.108,4.108,0,0,0,4.076-4.427h0a4.109,4.109,0,0,0-2.659-3.529L319.3,493.876a3.463,3.463,0,0,0-2.873.32,19.108,19.108,0,0,1-11.467,3.4,17.035,17.035,0,0,1-8.821-3.222,1.546,1.546,0,0,0-2.527,1.2v11.952a2.678,2.678,0,0,0,2.689,2.678Z" fill="#c1d8ed"></path>
  <path d="M163.978,178.894c-.26,5.5-3.26,13.59-12.48,14.19-12.31.82-21.85-8.71-22.57-14.32h.04C141.068,178.764,156.908,178.784,163.978,178.894Z" fill="#EDA59F"></path>
  <rect x="482.918" y="481.024" width="21" height="24.532" transform="translate(-36.459 39.389) rotate(-4.409)" fill="#EDA59F"></rect>
  <path d="M457.286,510.019a4.107,4.107,0,0,1-4.076-4.427h0a4.107,4.107,0,0,1,2.659-3.529l24.442-8.187a3.461,3.461,0,0,1,2.872.32,19.114,19.114,0,0,0,11.468,3.4,17.035,17.035,0,0,0,8.821-3.222,1.546,1.546,0,0,1,2.527,1.2v11.952a2.678,2.678,0,0,1-2.689,2.678Z" fill="#c1d8ed"></path>
  <rect x="424.713" y="482.79" width="24.803" height="21" transform="translate(-121.849 842.524) rotate(-80.452)" fill="#EDA59F"></rect>
  <path d="M553.174,293.51v-.065H452.131a18.5,18.5,0,0,0-18.425,16.827L417.6,487.656,454.447,491l8.658-95.351,9.215,97.983,36.838-3.465L495.887,349.054h48.2v-.109H571.7a38.087,38.087,0,0,0,38.087-38.087V293.51Z" fill="#55affc"></path>
  <g>
    <path d="M455.9,226.43s-3.191-11.579-11.337-8.8c-5.14,1.755-30.336,7.124-30.112,9.49.555,5.853,23.684,1.253,27.121,5.939Z" fill="#EDA59F"></path>
    <path d="M447.6,217.234s-12.546-.737-15.21.682c-2.358,1.257,3.957,3.977,3.957,3.977Z" fill="#EDA59F"></path>
  </g>
  <path d="M400.983,510.019a4.107,4.107,0,0,1-4.076-4.427h0a4.108,4.108,0,0,1,2.658-3.529l24.443-8.187a3.461,3.461,0,0,1,2.872.32,19.112,19.112,0,0,0,11.468,3.4,17.031,17.031,0,0,0,8.82-3.222,1.547,1.547,0,0,1,2.528,1.2v11.952a2.678,2.678,0,0,1-2.689,2.678Z" fill="#c1d8ed"></path>
  <path d="M634.472,202.241l-5.589,27.45-17.7-36.334-.091.045a20.162,20.162,0,0,0-4.637-7.108c-4.56-4.56-12.46-7.52-22.08-7.53-.72,5.61-34.79,5.63-35.05.13-1.3.02-2.31.05-2.94.07-11.213.484-16.965,5.122-19.66,12.118l-33.892,54.092-41.28-28.709-12.45,17.9,50.671,35.239a10.9,10.9,0,0,0,15.463-3.162l21.838-34.853c.548,4.9.988,9.732,1.04,14.294.38,32.47-8.38,38.59-4.06,48.51,4.19,9.63,86.52,13.63,87.62-3.31.7-10.78-8.8-20.19-8.8-41.2,0-5.544,1.351-11.5,3.044-17.543l17.434,35.788a10.9,10.9,0,0,0,20.484-2.6l12-58.94Z" fill="#2f3235"></path>
  <path d="M549.326,178.894c.26,5.5,3.26,13.59,12.48,14.19,12.31.82,21.85-8.71,22.57-14.32h-.04C572.236,178.764,556.4,178.784,549.326,178.894Z" fill="#EDA59F"></path>
  <g>
    <rect x="35.217" y="281.25" width="9.391" height="228.957" fill="#dee8f5"></rect>
    <rect x="642.565" y="281.25" width="9.391" height="228.957" fill="#dee8f5"></rect>
    <rect y="271.793" width="688.332" height="12.913" fill="#dee8f5"></rect>
  </g>
  <g>
    <g>
      <rect x="756.28" y="477.34" width="14.967" height="30.991" fill="#c1d8ed"></rect>
      <rect x="850.236" y="477.34" width="14.967" height="30.991" fill="#c1d8ed"></rect>
    </g>
    <rect x="742.561" y="346.047" width="136.362" height="152.29" fill="#c1d8ed"></rect>
    <rect x="706.345" y="346.047" width="136.362" height="152.29" fill="#dee8f5"></rect>
    <g>
      <rect x="720.065" y="477.34" width="14.967" height="30.991" fill="#dee8f5"></rect>
      <rect x="814.021" y="477.34" width="14.967" height="30.991" fill="#dee8f5"></rect>
    </g>
    <g opacity="0.53">
      <rect x="713.681" y="355.463" width="121.69" height="38.625" fill="#f3f5fd"></rect>
    </g>
    <g opacity="0.53">
      <rect x="713.681" y="403.542" width="121.69" height="38.625" fill="#f3f5fd"></rect>
    </g>
    <g opacity="0.53">
      <rect x="713.681" y="451.62" width="121.69" height="38.625" fill="#f3f5fd"></rect>
    </g>
    <circle cx="774.526" cy="374.775" r="5.405" fill="#fff"></circle>
    <circle cx="774.526" cy="422.854" r="5.405" fill="#fff"></circle>
    <circle cx="774.526" cy="470.933" r="5.405" fill="#fff"></circle>
  </g>
  <g>
    <path d="M857.359,312.078a3.777,3.777,0,0,1-5.14,1.47,3.945,3.945,0,0,0-3.732.67c-2.128,1.968-3.13,3.511-3.351,5.2h-19.9a27.222,27.222,0,0,0-.461-3.572,15.825,15.825,0,0,0-4.347-8.517,3.565,3.565,0,0,0-2.072-1.112,3.78,3.78,0,1,1-3.327-6.789c3.2-1.592,7.243-.694,10.527,2.343a19.306,19.306,0,0,1,2.724,3.13,33.365,33.365,0,0,0-1.408-5.676,13.171,13.171,0,0,0-4.028-5.988,3.785,3.785,0,0,1,4.581-6.026,20.38,20.38,0,0,1,6.567,9.45c.135.375.265.757.381,1.144,2.355-5.866,4.766-10.828,9.629-13.687a3.784,3.784,0,0,1,3.837,6.524c-2.97,1.746-4.747,5.687-6.751,10.748a28.373,28.373,0,0,1,7.815-6.315,3.782,3.782,0,1,1,3.621,6.641A20.865,20.865,0,0,0,846.5,306.7a10.948,10.948,0,0,1,9.395.228A3.785,3.785,0,0,1,857.359,312.078Z" fill="#8ddbe0"></path>
    <rect x="817.792" y="319.414" width="35.168" height="10.225" fill="#dee8f5"></rect>
    <path d="M852.957,329.639v11.21a5.259,5.259,0,0,1-5.257,5.257H823.043a5.259,5.259,0,0,1-5.257-5.257v-11.21Z" fill="#55affc"></path>
  </g>
  <g>
    <rect x="732.748" y="314.996" width="68.012" height="15.401" fill="#c1d8ed"></rect>
    <g>
      <rect x="705.629" y="314.996" width="71.923" height="15.401" fill="#dee8f5"></rect>
      <rect x="710.26" y="318.465" width="50.19" height="8.463" fill="#f3f5fd"></rect>
      <g opacity="0.62">
        <rect x="765.075" y="314.996" width="6.606" height="15.401" fill="#c1d8ed"></rect>
      </g>
    </g>
    <g>
      <rect x="737.127" y="330.379" width="68.012" height="15.401" transform="translate(1542.266 676.159) rotate(-180)" fill="#c1d8ed"></rect>
      <g>
        <rect x="710.007" y="330.379" width="71.923" height="15.401" transform="translate(1491.938 676.159) rotate(-180)" fill="#f3f5fd"></rect>
        <rect x="715.879" y="330.379" width="3.491" height="15.401" transform="translate(1435.248 676.159) rotate(-180)" fill="#dee8f5"></rect>
        <rect x="722.861" y="330.379" width="3.491" height="15.401" transform="translate(1449.212 676.159) rotate(-180)" fill="#dee8f5"></rect>
        <circle cx="773.685" cy="338.08" r="4.966" fill="#dee8f5"></circle>
      </g>
      <rect x="731.732" y="334.305" width="31.749" height="7.55" fill="#dee8f5"></rect>
    </g>
  </g>
  <path d="M311.779,255.978A11.674,11.674,0,0,0,300.1,244.311v-4.75H273.633V273.39H300.1v-5.734A11.677,11.677,0,0,0,311.779,255.978ZM300.1,262.835v-13.7a6.852,6.852,0,1,1,0,13.7Z" fill="#c1d8ed"></path>
  <path d="M401.507,267.656v5.734h26.469V239.561H401.507v4.75a11.673,11.673,0,1,0,0,23.345Zm-6.857-11.678a6.853,6.853,0,0,1,6.857-6.847v13.7A6.854,6.854,0,0,1,394.65,255.978Z" fill="#fdb754"></path>
</svg>